<?xml version="1.0" encoding="UTF-8"?>
<svg xmlns="http://www.w3.org/2000/svg" version="1.1" viewBox="0 0 1024 1024">
  <!-- Generator: Adobe Illustrator 30.2.1, SVG Export Plug-In . SVG Version: 2.1.1 Build 1)  -->
  <g id="black">
    <path d="M845.656,182.026c.076.354.113.72.124,1.082,1.063,33.261.788,67.5.093,100.805.006,5.267-1.034,7.482-4.979,11.402l-61.805,61.412c-.933.927-1.536,2.136-1.715,3.439l-.893,6.49c-.149,1.085-.593,2.109-1.283,2.961l-23.379,26.445v39.851s83.768-99.815,108.033-127.582c2.693-3.081,6.229-5.294,10.176-6.373l140.191-38.316c5.415-1.441,9.675,4.666,6.455,9.25l-264.012,381.689-.843,32.463,90.393-128.839c3.403-4.67,10.793-2.305,10.853,3.473l.52,50.397c.016,1.585.659,3.1,1.789,4.213l16.249,16.014c.228.225.478.426.74.611,3.482,2.457,5.973,5.962,5.969,10.664l-.125,162.956c-.004,5.23-6.353,8.784-9.542,11.671l-52.638,47.65c-14.216,12.869-.101,12.979-10.636,28.871-.232.349-.508.679-.807.972l-74.297,72.814-54.344,53.708c-1.123,1.11-2.639,1.733-4.218,1.733l-365.876.048c-7.574.001-10.739-1.569-15.765-6.68l-30.25-30.762-58.438-59.142-64.58-66.179c-4.504-4.615-7.043-7.272-7.04-14.298l.073-151.592c.003-5.276-5.766-7.761-8.756-10.724l-23.988-23.773c-3.268-3.239-4.891-5.176-5.53-9.337-.045-.291-.065-.594-.067-.889-.83-130.679-.856-266.195.028-396.918.002-.26.016-.526.05-.784.664-5.06,3.439-7.469,7.322-11.454l27.343-28.065c1.433-1.471,2.598-4.684,2.596-6.94l-.082-79.28c-.005-5.063,2.367-8.418,5.685-11.773l55.483-56.109c4.801-4.855,8.247-9.332,14.828-10.51.348-.062.708-.087,1.061-.088,107.907-.298,215.624-.614,323.151-.947,1.516-.005,2.973-.583,4.08-1.618l42.092-39.354.255-.254c2.745-2.909,6.239-6.493,10.638-6.494L705.572,0c1.548,0,3.036.597,4.154,1.668l73.785,70.688c1.165,1.117,1.832,2.655,1.85,4.269l.442,41.052c.017,1.62.689,3.164,1.862,4.281l47.586,45.334c4.814,4.586,9.066,8.465,10.406,14.734Z" style="fill: #030403;"/>
    <path d="M582.004,156.113" style="fill: #030403;"/>
  </g>
  <g id="white">
    <polygon points="212.87 160.607 212.586 372.793 156.141 315.544 156.11 136.515 215.599 76.945 321.752 77.023 362.731 120.625 252.513 120.725 212.87 160.607" style="fill: #f2f2f2;"/>
    <rect x="669.313" y="879.997" width="107.617" height="42.176" transform="translate(-424.862 770.725) rotate(-44.774)" style="fill: #f2f2f2;"/>
    <path d="M735.554,673.065s-109.374,158.079-152.521,214.14c-.294.622-.627,1.463.093,1.732l5.384-.064,47.89.064,24.089,24.335,75.02-74.26.047-165.947Z" style="fill: #f2f2f2;"/>
    <path d="M758.464,352.686l-1.367-153.543-49.571-47.116-.085-32.479,37.281-42.595-39.474-37.199-55.257,76.567-38.114.185-57.541,42.258h.29s-5.583,4.176-5.583,4.176c-59.326-.371-148.792-1.064-148.792-1.064-2.653-.177-5.329-.651-7.385-2.406-6.256-7.171-12.879-14.065-19.87-20.683-39.111-.412-79.39-.571-118.443.006l-33.188,33.58c-.351,70.787-1.145,480.734-.473,483.983.353,2.055-62.07,47.266-73.683,55.657-.984.711-1.12,2.113-.292,3.001,7.684,8.235,43.967,46.841,43.967,46.841l-.072,63.537,72.234,70.832,69.735.915-31.236-28.448-40.939-.158-50.373-51.721.117-40.405c.15.113,4.998,4.318,12.791,11.092l-.089,22.178,44.144,45.04,37.962.351c25.131,21.874,45.396,41.861,45.396,41.861l41.433-.406-213.754-178.242-.158-2.219s118.169-85.268,153.505-109.799l140.794,135.408s1.187-.011,3.56-.034l256.119-288.115.445-66.133c.016-2.373.937-4.65,2.574-6.366l20.817-21.822c1.672-1.753,2.596-4.089,2.574-6.512Z" style="fill: #f2f2f2;"/>
  </g>
  <g id="Gray">
    <polygon points="547.095 144.38 527.589 144.469 567.372 96.014 366.197 95.578 349.08 77.026 542.608 77.159 595.67 27.977 699.305 27.127 649.379 95.738 613.234 95.527 547.095 144.38" style="fill: #99999e;"/>
    <path d="M816.819,290.553c.003,2.283-.925,4.469-2.569,6.053l-34.617,34.517c-1.09,1.668-3.682.898-3.685-1.095l-.182-139.477-52.297-48.941.404-20.682,34.661-40.084,3.634,3.783-.626,57.893,55.14,49.918.136,98.116Z" style="fill: #99999e;"/>
    <path d="M628.952,904.987l-60.163-.021-25.747,33.153,79.581.177,32.004,45.424-97.014.082-23.31-34.849-30.051,36.756c-.521.638-2.179,1.578-2.955,1.576-.62-.001-1.94-.781-2.571-1.382l-95.05-79.445-72.97-.241-48.04,55.877c-.74,1.671-.694,3.466.068,5.048l33.263,33.833,343.982-.052,30.937-31.645-61.965-64.292ZM330.943,987.319c-.352-7.744-.299-15.409.355-22.841l23.887-32.821,65.66-.027,54.12,55.218-144.022.47Z" style="fill: #99999e;"/>
    <polygon points="449.494 977.423 341.777 977.479 341.9 969.681 361.624 942.505 415.755 942.468 449.494 977.423" style="fill: #6e6e6e;"/>
    <path d="M850.959,653.439l-29.274-27.747-1.614-9.574-68.229,98.426-.024,116.994,26.563,25.6,72.71-63.017-.132-140.683ZM796.726,785.51l-.052-103.077,31.855-11.979.154,101.577-31.958,13.479Z" style="fill: #99999e;"/>
    <polygon points="212.117 651.518 161.217 690.246 160.803 678.021 121.002 638.539 121.027 576.891 180.085 625.415 180.073 424.416 120.988 378.572 121.017 263.238 141.66 242.244 142.058 320.156 212.501 391.167 212.117 651.518" style="fill: #99999e;"/>
    <polygon points="736.922 324.094 735.78 207.256 668.077 140.286 623.509 140.355 595.977 162.119 570.438 162.731 579.901 157.285 594.392 156.553 621.601 134.085 671.307 134.922 741.366 204.205 742.684 320.353 736.922 324.094" style="fill: #99999e;"/>
    <polygon points="735.431 771.129 735.554 794.843 700.663 829.328 701.01 850.093 677.769 872.244 627.461 872.374 610.811 888.959 602.986 888.686 626.216 866.866 674.925 867.017 693.554 848.217 693.094 826.085 735.431 771.129" style="fill: #99999e;"/>
    <polygon points="263.713 907.105 185.21 830.371 184.741 765.122 160.666 739.261 160.976 838.973 247.223 925.903 291.913 926.071 316.497 906.059 263.713 907.105" style="fill: #99999e;"/>
  </g>
  <g id="LIST">
    <path d="M531.329,47.75c-3.316.855-6.283.965-10.644.965l-315.396-.009c3.756-.557,6.889-.966,11.621-.966l314.419.01Z" style="fill: #f9f9f9;"/>
    <path d="M583.126,888.937c-1.405.082-.912-.9-.093-1.732l.093,1.732Z" style="fill: #818081;"/>
    <rect x="408.921" y="368.262" width="181.162" height="20.838" style="fill: #0a0a0a;"/>
    <rect x="408.953" y="272.417" width="182.026" height="20.32" style="fill: #030403;"/>
    <rect x="408.855" y="504.387" width="154.449" height="20.651" style="fill: #030403;"/>
    <rect x="408.891" y="408.594" width="139.114" height="20.13" style="fill: #0a0a0a;"/>
    <rect x="449.774" y="502.473" width="20.46" height="102.268" transform="translate(-93.681 1013.517) rotate(-89.99)" style="fill: #0a0a0a;"/>
    <path d="M384.721,208.512l-9.826-9.13c-1.349-1.254-3.094-1.9-4.946-1.804-1.84.09-3.525.9-4.744,2.281l-12.373,13.999h-65.885c-4.668,0-8.453,3.784-8.453,8.453v73.586c0,4.668,3.784,8.453,8.453,8.453h73.586c4.668,0,8.453-3.784,8.453-8.453v-59.415l16.224-18.543c2.427-2.775,2.213-6.916-.488-9.426Z" style="fill: #fff;"/>
    <path d="M357.674,249.409v43.628h-67.868v-67.868h53.029l9.997-11.312h-65.885c-4.668,0-8.453,3.784-8.453,8.453v73.586c0,4.668,3.784,8.453,8.453,8.453h73.586c4.668,0,8.453-3.784,8.453-8.453v-59.415l-11.312,12.929Z" style="fill: #0a0a0a;"/>
    <path d="M384.721,333.897l-9.826-9.13c-1.349-1.254-3.094-1.9-4.946-1.804-1.84.09-3.525.9-4.744,2.281l-12.373,13.999h-65.885c-4.668,0-8.453,3.784-8.453,8.453v73.586c0,4.668,3.784,8.453,8.453,8.453h73.586c4.668,0,8.453-3.784,8.453-8.453v-59.415l16.224-18.543c2.427-2.775,2.213-6.916-.488-9.426Z" style="fill: #fff;"/>
    <path d="M357.674,374.794v43.628h-67.868v-67.868h53.029l9.997-11.312h-65.885c-4.668,0-8.453,3.784-8.453,8.453v73.586c0,4.668,3.784,8.453,8.453,8.453h73.586c4.668,0,8.453-3.784,8.453-8.453v-59.415l-11.312,12.929Z" style="fill: #0a0a0a;"/>
    <path d="M384.721,471l-9.826-9.13c-1.349-1.254-3.094-1.9-4.946-1.804-1.84.09-3.525.9-4.744,2.281l-12.373,13.999h-65.885c-4.668,0-8.453,3.784-8.453,8.453v73.586c0,4.668,3.784,8.453,8.453,8.453h73.586c4.668,0,8.453-3.784,8.453-8.453v-59.415l16.224-18.543c2.427-2.775,2.213-6.916-.488-9.426Z" style="fill: #fff;"/>
    <path d="M357.674,511.897v43.628h-67.868v-67.868h53.029l9.997-11.312h-65.885c-4.668,0-8.453,3.784-8.453,8.453v73.586c0,4.668,3.784,8.453,8.453,8.453h73.586c4.668,0,8.453-3.784,8.453-8.453v-59.415l-11.312,12.929Z" style="fill: #0a0a0a;"/>
  </g>
  <g id="Green">
    <polygon points="513.641 135.417 404.463 135.486 380.533 110.117 533.877 110.413 513.641 135.417" style="fill: #03d464;"/>
    <polygon points="166.339 462.16 121.445 430.108 121.557 406.153 165.991 438.217 166.339 462.16" style="fill: #03d464;"/>
    <polygon points="166.299 549.074 121.633 517.94 121.685 493.814 166.493 526.198 166.299 549.074" style="fill: #03d464;"/>
    <polygon points="166.113 507.025 121.381 474.879 121.481 451.414 165.897 483.278 166.113 507.025" style="fill: #03d464;"/>
    <path d="M329.386,629.995l146.92,138.514,398.748-451.767,118.02-34.164s-442.653,618.587-492.539,680.895l-291.071-246.93,119.922-86.547Z" style="fill: #03d464;"/>
    <path d="M319.758,282.244l-24.056-23.347c-1.087-1.055-1.083-2.801.008-3.852l12.465-11.997c1.037-.998,2.678-.998,3.715,0l9.119,8.785c1.098,1.058,2.855.987,3.865-.155l43.401-49.106c.997-1.128,2.727-1.213,3.83-.188l9.826,9.13c1.061.986,1.146,2.636.193,3.726l-58.485,66.846c-1.01,1.154-2.78,1.226-3.881.158Z" style="fill: #03d464;"/>
    <path d="M319.758,407.629l-24.056-23.347c-1.087-1.055-1.083-2.801.008-3.852l12.465-11.997c1.037-.998,2.678-.998,3.715,0l9.119,8.785c1.098,1.058,2.855.987,3.865-.155l43.401-49.106c.997-1.128,2.727-1.213,3.83-.188l9.826,9.13c1.061.986,1.146,2.636.193,3.726l-58.485,66.846c-1.01,1.154-2.78,1.226-3.881.158Z" style="fill: #03d464;"/>
    <path d="M319.758,544.732l-24.056-23.347c-1.087-1.055-1.083-2.801.008-3.852l12.465-11.997c1.037-.998,2.678-.998,3.715,0l9.119,8.785c1.098,1.058,2.855.987,3.865-.155l43.401-49.106c.997-1.128,2.727-1.213,3.83-.188l9.826,9.13c1.061.986,1.146,2.636.193,3.726l-58.485,66.846c-1.01,1.154-2.78,1.226-3.881.158Z" style="fill: #03d464;"/>
    <polygon points="611.346 970.114 592.075 970.132 592.45 952.221 611.062 952.064 611.346 970.114" style="fill: #03d464;"/>
    <polygon points="582.601 969.985 564.844 970.27 565.18 952.797 582.515 952.72 582.601 969.985" style="fill: #03d464;"/>
    <path d="M820.178,757.451c-5.631,2.544-10.12,4.267-15.486,6.051l-.035-74.957c4.931-2.828,9.875-4.502,15.48-6.119l.041,75.025Z" style="fill: #03d464;"/>
  </g>
</svg>