<?xml version="1.0" encoding="utf-8"?>
<!-- Generator: Adobe Illustrator 19.1.0, SVG Export Plug-In . SVG Version: 6.00 Build 0)  -->
<svg version="1.1" xmlns="http://www.w3.org/2000/svg" xmlns:xlink="http://www.w3.org/1999/xlink" x="0px" y="0px"
	 viewBox="0 0 1024 1024" style="enable-background:new 0 0 1024 1024;" xml:space="preserve">
<style type="text/css">
	.st0{fill:#00BF53;}
	.st1{display:none;}
	.st2{display:inline;}
	.st3{display:inline;fill:#FFFFFF;}
	.st4{display:none;fill:#00BF53;stroke:#FFFFFF;stroke-width:20;stroke-miterlimit:10;}
	.st5{fill:#FFFFFF;}
	.st6{fill:#005121;stroke:#FFFFFF;stroke-width:20;stroke-miterlimit:10;}
	.st7{display:inline;fill:#005121;stroke:#FFFFFF;stroke-width:20;stroke-miterlimit:10;}
	.st8{display:inline;fill:#00BF53;}
</style>
<g id="Background">
	<rect class="st0" width="1024" height="1024"/>
</g>
<g id="Layer_1" class="st1">
	<path class="st2" d="M886.9,988.3H116c0,0,111-227.3,10-478.6C16.4,236.7,116,35.8,116,35.8h770.9c0,0-122,205,1.9,473.9
		C1024,803,886.9,988.3,886.9,988.3z"/>
	<path class="st3" d="M-450.8,125.1c0,16.4-5.7,30.2-17.2,41.7l-444,444l-83.4,83.4c-11.4,11.4-25.3,17.2-41.7,17.2
		c-16.4,0-30.2-5.7-41.7-17.2l-83.4-83.4l-222-222c-11.4-11.4-17.2-25.3-17.2-41.7c0-16.4,5.7-30.3,17.2-41.7l45.5-45.5
		c11.4-11.4,25.3-17.2,41.7-17.2c16.3,0,30.3,5.7,41.7,17.2l218.1,218.7l440.1-440.7c11.4-11.4,25.3-17.2,41.7-17.2
		c16.4,0,30.3,5.7,41.7,17.2l45.5,45.5C-456.5,94.8-450.8,108.7-450.8,125.1z"/>
	<polygon class="st3" points="383,622.4 194.4,433.8 97.4,530.8 383,816.3 946.3,253 849.4,156 	"/>
</g>
<g id="Icon">
	<polygon class="st4" points="394.4,703.8 211.7,495.2 94.8,642.1 403.6,837.7 958.8,354.3 832.8,187.4 	"/>
	<g class="st1">
		<path class="st3" d="M190.4,562.5l52.1-65.6l163.5,186.7l354.9-418C771.8,156.3,843.8,86,843.8,86h-689c0,0-165.4,219.1,0,423.5
			C169,527.1,180.8,544.7,190.4,562.5z"/>
		<path class="st3" d="M845.5,509.3c-13.8-17-25.6-33.7-35.6-50.2L414.4,803.4L227.2,684.8c11.4,139-72.4,252.2-72.4,252.2h689
			C843.8,937,1037.6,746.6,845.5,509.3z"/>
	</g>
	<path class="st5" d="M841,925.7H170.2c0,0,161-217.6,0-416.5c-161-198.9,0-412.4,0-412.4H841c0,0-185.3,181.3,1.7,412.4
		C1029.7,740.3,841,925.7,841,925.7z"/>
	<polygon class="st6" points="370.9,717.4 175.4,494.2 50.4,651.4 380.8,860.7 974.8,343.5 839.9,164.9 	"/>
</g>
<g id="Logo" class="st1">
	<g class="st2">
		<path class="st5" d="M153.4,568.5l58.3-73.3l182.8,208.6L791,236.7C803.1,114.5,883.5,36,883.5,36h-770c0,0-184.8,244.9,0,473.2
			C129.4,528.9,142.6,548.6,153.4,568.5z"/>
		<path class="st5" d="M885.4,509c-15.4-19-28.6-37.7-39.8-56.1l-442,384.8L194.4,705.1C207.1,860.5,113.5,987,113.5,987h770
			C883.5,987,1100,774.2,885.4,509z"/>
	</g>
	<polygon class="st7" points="394.4,703.8 211.7,495.2 94.8,642.1 403.6,837.7 958.8,354.3 832.8,187.4 	"/>
</g>
<g id="Layer_2" class="st1">
	<rect class="st8" width="1024" height="1024"/>
	<g class="st2">
		<path class="st5" d="M194.4,433.8L383,622.4l460.3-460.1C858.7,83.2,886.9,36,886.9,36H116c0,0-98.3,198.2,7.9,468.4L194.4,433.8z
			"/>
		<path class="st5" d="M888.8,509.5c-24.6-53.4-39.5-104.2-47.6-151.5L383,816.3L150.1,583.4C206.1,803.7,116,988,116,988h770.9
			C886.9,988,1024,802.9,888.8,509.5z"/>
	</g>
</g>
</svg>
